# xmcd
#
# Track frame offsets:
#	150
#	17666
#	43322
#	54912
#	70073
#	80167
#	88961
#	91764
#	108202
#	119463
#	126586
#
# Disc length: 2079 seconds
#
# Revision: 1
# Processed by: cddbd v1.5.2PL0 Copyright (c) Steve Scherf et al.
# Submitted via: audiograbber 1.83.01
#
DISCID=94081d0b
DTITLE=Michael Locke - The Lost Files
DYEAR=2008
DGENRE=Blues
TTITLE0=Nitro
TTITLE1=Checking on my Baby
TTITLE2=Real Good Woman
TTITLE3=24/7
TTITLE4=Pressure Cooker
TTITLE5=Pleasure King
TTITLE6=Coltrane Chat
TTITLE7=Pizza Rats and Tats
TTITLE8=Nasty Reputation
TTITLE9=2nd Line Thang
TTITLE10=Steet Walking Woman
EXTD=
EXTT0=
EXTT1=
EXTT2=
EXTT3=
EXTT4=
EXTT5=
EXTT6=
EXTT7=
EXTT8=
EXTT9=
EXTT10=
PLAYORDER=
